<?xml version="1.0" standalone="no"?><!DOCTYPE svg PUBLIC "-//W3C//DTD SVG 1.1//EN" "http://www.w3.org/Graphics/SVG/1.1/DTD/svg11.dtd"><svg class="icon" width="28px" height="28.00px" viewBox="0 0 1024 1024" version="1.1" xmlns="http://www.w3.org/2000/svg"><path fill="#ffffff" d="M298.666667 192h42.666666v63.978667L298.666667 256v533.333333h426.666666V256h-42.666666V192h42.666666a64 64 0 0 1 64 64v533.333333a64 64 0 0 1-64 64H298.666667a64 64 0 0 1-64-64V256a64 64 0 0 1 64-64z m256 341.333333v64h-192v-64h192z m106.666666-128v64H362.666667v-64h298.666666zM576 128a64 64 0 0 1 64 64v42.666667a64 64 0 0 1-64 64h-128a64 64 0 0 1-64-64V192a64 64 0 0 1 64-64h128z m0 64h-128v42.666667h128V192z" /></svg>