<?xml version="1.0" standalone="no"?><!DOCTYPE svg PUBLIC "-//W3C//DTD SVG 1.1//EN" "http://www.w3.org/Graphics/SVG/1.1/DTD/svg11.dtd"><svg class="icon" width="28px" height="28.00px" viewBox="0 0 1024 1024" version="1.1" xmlns="http://www.w3.org/2000/svg"><path fill="#ffffff" d="M335.708 598.84s430.982 38.595 495.307-205.842-135.084-283.033-135.084-283.033H271.094c-14.987 0-28.085 10.116-31.873 24.616L68.582 787.716c-4.792 18.342 9.048 36.263 28.006 36.263h141.253a28.949 28.949 0 0 0 27.382-19.558l70.485-205.581z m106.137-357.008c0 1.071 147.949 0 147.949 0s45.028 25.73 32.163 109.354-90.056 102.921-90.056 102.921H371.087l70.758-212.275zM843.88 225.751s102.921 225.14-83.623 334.493c0 0-122.219 83.623-392.386 77.191L297.496 836.83a28.947 28.947 0 0 1-27.296 19.313h-72.086c-13.567 0-25.314 9.423-28.257 22.667-4.017 18.077 9.739 35.226 28.257 35.226h136.412a28.945 28.945 0 0 0 27.296-19.313l70.375-199.395s334.493 19.298 463.144-128.651 25.73-321.628-51.461-340.926z" /></svg>